# xmcd CD database file
# Copyright (C) 1993-1998 Ti Kan
#
# Track frame offsets:
#	150
#	19297
#	43287
#	66105
#	88942
#	109435
#	128690
#	151545
#	175585
#	200032
#	219352
#	234447
#	256292
#	277090
#
# Disc length: 3964 seconds
#
# Revision: 1
# Processed by: cddbd v1.4b41PL1 Copyright (c) Steve Scherf et al.
# Submitted via: CDValet v3.31 - Copyright (c) 1997 Greg Leichner
#
DISCID=c80f7a0e
DTITLE=Salserín - Entre Tu Y Yo
DYEAR=1900
DGENRE=
TTITLE0=Entre Tu y Yo
TTITLE1=Amor A Primera Vista
TTITLE2=Tu Mamá y Tu Corazón
TTITLE3=Se Minimizó Este Amor
TTITLE4=Un Beso No Es Pecado
TTITLE5=El Mini Sonero
TTITLE6=Blanco y Negro
TTITLE7=Quiero Vivir y Soñar
TTITLE8=Un Pedazo De Mi Vida
TTITLE9=Rosa En La Playa
TTITLE10=Mírame Para Arriba
TTITLE11=Mi Bicicleta
TTITLE12=Tu Eres La Que Amo
TTITLE13=Entre Tu y Yo (Balada)
EXTD=
EXTT0=
EXTT1=
EXTT2=
EXTT3=
EXTT4=
EXTT5=
EXTT6=
EXTT7=
EXTT8=
EXTT9=
EXTT10=
EXTT11=
EXTT12=
EXTT13=
PLAYORDER=
